<svg width="162" height="53" viewBox="0 0 162 53" fill="none" xmlns="http://www.w3.org/2000/svg">
<path d="M0 20.0437V40.0871H2.63844H5.28175L5.56357 38.1144C5.7142 37.026 5.85997 36.0833 5.87455 36.0153C5.90856 35.8987 5.93285 35.9278 6.22925 36.3506C7.60921 38.3282 9.68887 39.7276 12.1718 40.3495C13.2943 40.6314 14.2126 40.7334 15.5731 40.7334C16.9482 40.7334 18.0318 40.6071 19.1688 40.3252C24.2173 39.0668 28.0122 34.8297 28.9549 29.3973C29.1589 28.2214 29.1784 27.9445 29.1784 26.3118C29.1735 24.6015 29.1395 24.1982 28.8868 22.8814C28.3621 20.2089 27.0501 17.6677 25.1988 15.7532C23.1386 13.625 20.5876 12.3422 17.5848 11.9292C16.7927 11.8223 15.2281 11.7834 14.373 11.8514C11.8123 12.0604 10.1602 12.7163 8.16314 14.3247C7.58006 14.796 6.77346 15.6074 6.36531 16.1274C6.19038 16.3509 6.0106 16.5792 5.96687 16.6376C5.88912 16.7347 5.88426 16.2877 5.87941 8.36752V0.000296217H2.9397H0V20.0437ZM15.4031 16.9631C16.579 17.07 17.5556 17.3421 18.5128 17.8377C21.7101 19.4898 23.4885 23.032 23.1823 27.1525C22.988 29.6986 22.1571 31.647 20.5828 33.2116C19.2514 34.5382 17.7451 35.2816 15.855 35.5488C15.0678 35.6557 13.4109 35.6217 12.7063 35.4759C10.4906 35.0241 8.72193 33.8336 7.45858 31.9483C6.686 30.7967 6.2244 29.5431 5.99602 27.9639C5.88912 27.2448 5.87455 25.4664 5.97173 24.7813C6.26813 22.6336 6.9824 21.0155 8.26032 19.6016C10.0484 17.6288 12.5557 16.7007 15.4031 16.9631Z" fill="#7D41E2"/>
<path d="M32.2637 20.0435V40.0869H35.2034H38.1431V20.0435V6.43535e-05H35.2034H32.2637V20.0435Z" fill="#7D41E2"/>
<path d="M54.1538 11.8416C51.4425 12.07 49.1199 12.8912 47.0596 14.3538C44.6981 16.0253 42.8614 18.5908 42.0014 21.4188C41.3163 23.6636 41.1365 26.3944 41.5009 28.8919C41.9577 32.0308 43.2842 34.7324 45.4076 36.8558C47.3706 38.8189 50.0674 40.1648 52.8467 40.5681C54.9604 40.8791 57.0595 40.7819 59.0128 40.2814C61.6901 39.6012 64.0856 38.1192 65.8591 36.0492C67.8222 33.7606 68.9252 31.0396 69.1973 27.8084C69.2702 26.9192 69.2313 24.8249 69.1244 24.0037C68.7794 21.3945 67.9048 19.1982 66.4131 17.1914C64.3043 14.3635 61.1556 12.4927 57.6426 11.9777C56.6076 11.8271 55.043 11.7639 54.1538 11.8416ZM56.7728 17.0068C59.7562 17.5947 61.9865 19.7764 62.8028 22.9153C63.3227 24.9027 63.3227 27.6237 62.8028 29.6062C62.2343 31.7976 60.7912 33.7266 58.9691 34.7373C58.0361 35.2524 56.9088 35.5828 55.8253 35.6557C53.5173 35.816 51.5056 35.0872 49.9507 33.5274C48.5416 32.1183 47.7399 30.4031 47.4143 28.0853C47.3755 27.7841 47.3512 27.1475 47.356 26.2389C47.356 25.063 47.3706 24.752 47.4629 24.1738C47.6719 22.8473 48.012 21.8123 48.5659 20.8454C49.8244 18.6443 51.7874 17.2837 54.2267 16.929C54.8778 16.8367 56.0925 16.8707 56.7728 17.0068Z" fill="#7D41E2"/>
<path d="M80.6838 11.861C78.5361 12.0602 76.7868 12.6481 75.1931 13.7074C73.7499 14.6743 72.7636 15.7919 72.0104 17.3225C71.301 18.7656 71.0192 20.0435 71.024 21.7685C71.024 23.4546 71.3302 24.8248 71.9958 26.1659C72.4332 27.0357 72.9239 27.7111 73.6965 28.4885L74.2164 29.0084L73.9249 29.3145C73.7645 29.4797 72.6858 30.5827 71.5342 31.7586L69.4351 33.9063V34.5671V35.228L69.6344 35.4126C70.3049 36.0151 71.369 36.7294 72.2728 37.1764C72.6421 37.3611 72.9579 37.5165 72.9676 37.5263C72.9725 37.536 72.7927 37.6963 72.5595 37.881C70.7957 39.2707 69.5955 41.1559 69.2651 43.051C69.1728 43.5855 69.1582 44.6982 69.2408 45.359C69.6198 48.4688 71.5051 50.5824 75.091 51.9138C78.0842 53.0314 82.7197 53.3229 86.2182 52.6184C87.5884 52.3414 88.9538 51.8215 90.0374 51.1655C92.0976 49.9216 93.3706 48.3619 94.0898 46.2093C94.7992 44.0908 94.6777 41.6904 93.7691 39.8683C92.7147 37.7595 90.7079 36.3747 87.6321 35.641C86.2911 35.3203 85.4456 35.1988 83.0404 34.985C78.9199 34.6157 77.0881 34.2561 75.9511 33.5905L75.7421 33.469L76.2183 32.9831C76.4856 32.7158 77.0249 32.1911 77.4185 31.8169L78.1376 31.1318L78.7304 31.263C81.8548 31.9433 85.2755 31.6469 87.705 30.4856C90.1443 29.3194 91.9178 27.3564 92.705 24.9463C93.0937 23.7655 93.22 22.8229 93.1811 21.4089C93.1568 20.3351 93.0597 19.6548 92.8167 18.8385L92.6758 18.3672H100.781C105.241 18.3672 108.89 18.3769 108.89 18.3915C108.89 18.4061 105.732 21.9969 101.874 26.3748L94.8526 34.329V37.2056L94.8478 40.087H106.096H117.345V39.3095C117.345 38.8819 117.355 38.5321 117.369 38.5321C117.389 38.5321 117.578 38.639 117.802 38.775C119.468 39.7808 121.577 40.4417 123.856 40.6798C124.677 40.7624 126.558 40.7478 127.379 40.6506C129.901 40.3494 132.146 39.465 133.973 38.0656C134.123 37.949 134.259 37.8518 134.274 37.8518C134.288 37.8518 134.303 38.3523 134.303 38.9694V40.087H137.85H141.397V32.7304C141.397 28.0415 141.417 25.1504 141.446 24.7519C141.621 22.6091 142.32 20.9425 143.559 19.7034C144.551 18.7073 145.673 18.1291 147.058 17.9056C147.563 17.823 148.875 17.8084 149.39 17.8813C151.431 18.1728 152.767 19.2029 153.545 21.0882C153.749 21.5838 153.963 22.4099 154.089 23.1873C154.196 23.8287 154.196 23.887 154.21 31.9578L154.23 40.087H157.777H161.324L161.304 31.2776C161.29 23.3185 161.28 22.4147 161.207 21.8657C160.857 19.3147 160.27 17.5557 159.235 16.0057C157.675 13.6685 155.376 12.3177 152.233 11.895C151.514 11.7978 149.424 11.8124 148.734 11.9193C147.476 12.1185 146.499 12.41 145.552 12.8716C143.817 13.722 142.379 15.0339 141.412 16.6471C141.261 16.9046 141.13 17.099 141.12 17.0747C141.115 17.0504 140.999 16.1029 140.863 14.9659C140.731 13.8289 140.605 12.8085 140.591 12.6919L140.561 12.4878H137.432H134.303V13.5082C134.303 14.1544 134.284 14.5286 134.254 14.5286C134.23 14.5286 134.07 14.4314 133.905 14.3099C132.976 13.6248 131.645 12.9494 130.425 12.5412C129.395 12.2011 128.156 11.9581 126.898 11.8512C126.096 11.7881 124.381 11.8172 123.613 11.9047C121.286 12.1817 119.386 12.8279 117.612 13.9406L117.078 14.2759L117.063 13.3818L117.053 12.4878L106.908 12.4829C101.33 12.4781 94.4736 12.4781 91.6651 12.4878L86.5632 12.4975L86.1744 12.376C85.6399 12.206 84.775 12.0213 84.1094 11.929C83.4388 11.8367 81.3883 11.7929 80.6838 11.861ZM83.5506 16.6422C84.7556 16.856 85.9169 17.4391 86.6166 18.1825C87.4718 19.0912 87.8557 20.1893 87.8557 21.7442C87.8557 23.3039 87.4815 24.3875 86.6263 25.2913C85.3387 26.6567 83.2202 27.2543 80.8781 26.9142C78.7644 26.6032 77.2144 25.4225 76.6265 23.6635C76.1892 22.3613 76.2718 20.5392 76.8208 19.3584C77.0686 18.8239 77.331 18.4498 77.7246 18.0708C78.6138 17.2205 79.7314 16.7394 81.2231 16.5693C81.7527 16.511 83.0209 16.5499 83.5506 16.6422ZM127.039 17.7112C129.293 18.1242 131.14 19.6597 131.825 21.7053C131.966 22.1329 132.165 23.1339 132.165 23.4254V23.5663H125.289C121.509 23.5663 118.414 23.5517 118.414 23.5275C118.414 23.4157 118.672 22.4585 118.803 22.0843C119.153 21.1028 119.614 20.3691 120.328 19.65C121.441 18.5324 122.943 17.8424 124.731 17.6189C125.105 17.5752 126.616 17.6335 127.039 17.7112ZM111.262 25.5585C111.087 28.4691 111.733 31.5886 112.967 33.7702C113.079 33.9646 113.166 34.1395 113.166 34.1638C113.166 34.1881 111.057 34.2076 107.962 34.2076C105.1 34.2076 102.768 34.1881 102.778 34.1687C102.797 34.1104 111.286 24.6353 111.305 24.6499C111.31 24.6596 111.291 25.0678 111.262 25.5585ZM134.293 29.6984L134.303 31.3893H132.826H131.349L131.145 31.7635C130.6 32.7742 129.619 33.7265 128.579 34.2513C128.108 34.4894 127.34 34.7275 126.747 34.8149C125.95 34.9413 124.463 34.8927 123.759 34.7275C122.083 34.329 120.678 33.4253 119.702 32.1279C118.973 31.1512 118.448 29.7081 118.331 28.3427L118.302 27.988L126.29 27.9977L134.279 28.0123L134.293 29.6984ZM78.8228 39.018C79.6002 39.1297 81.1016 39.2901 82.0686 39.3581C84.6244 39.5379 85.878 39.7954 87.0005 40.3688C87.36 40.5534 87.5204 40.6749 87.8994 41.0588C88.672 41.8265 88.9684 42.5456 88.9684 43.6292C88.9684 44.2754 88.8615 44.8051 88.6282 45.3153C88.0403 46.6175 86.5 47.701 84.6293 48.1286C83.3222 48.4299 81.4077 48.4639 79.9306 48.2209C77.5545 47.8274 75.815 46.8264 75.1542 45.4707C74.8286 44.8099 74.7606 44.4747 74.7606 43.634C74.7558 43.0461 74.7752 42.8663 74.8675 42.5408C75.0133 42.0451 75.3486 41.326 75.6255 40.9422C75.8879 40.5777 76.539 39.9461 76.9812 39.6302C77.3505 39.3678 78.0793 38.9208 78.1376 38.9208C78.1571 38.9208 78.468 38.9645 78.8228 39.018Z" fill="#7D41E2"/>
</svg>
