<svg width="56" height="56" viewBox="0 0 56 56" fill="none" xmlns="http://www.w3.org/2000/svg">
<path d="M17.4824 49.4581C20.6581 45.8883 29.3221 40.8906 38.5733 49.4581C33.3663 51.9034 25.9746 53.1342 17.4824 49.4581Z" fill="#FF765D"/>
<path d="M38.5733 6.54207C35.3977 10.1118 26.7335 15.1095 17.4824 6.54207C22.6894 4.09654 30.081 2.86577 38.5733 6.54207Z" fill="#FF765D"/>
<path d="M5.99125 17.7622C9.66014 20.8536 14.7966 29.2881 5.99125 38.2937C3.47777 33.2249 2.21281 26.0292 5.99125 17.7622Z" fill="black"/>
<path d="M50.0083 38.2937C46.3395 35.2022 41.203 26.7679 50.0083 17.7622C52.5219 22.8311 53.7868 30.0268 50.0083 38.2937Z" fill="black"/>
<path d="M43.3813 9.31445C30.2286 22.3576 17.6004 14.7491 12.9304 9.31445L8.92285 12.9074C16.0445 21.6071 26.3108 22.3981 30.5539 21.7061L8.92285 42.8966L12.9304 46.7131C25.3998 33.4272 38.4266 41.1774 43.3813 46.7131L47.0767 42.8966C39.9024 34.5161 29.6669 33.6879 25.4458 34.3214L47.0767 12.9074L43.3813 9.31445Z" fill="#7333DF"/>
</svg>
