<svg width="13" height="16" viewBox="0 0 13 16" fill="none" xmlns="http://www.w3.org/2000/svg">
<path d="M2.10287 16C1.7362 16 1.4222 15.8432 1.16087 15.5296C0.899532 15.216 0.769088 14.8395 0.769532 14.4V3.2C0.769532 2.76 0.900199 2.3832 1.16153 2.0696C1.42287 1.756 1.73664 1.59947 2.10287 1.6H2.76953V0H4.10287V1.6H9.4362V0H10.7695V1.6H11.4362C11.8029 1.6 12.1169 1.7568 12.3782 2.0704C12.6395 2.384 12.77 2.76053 12.7695 3.2V14.4C12.7695 14.84 12.6389 15.2168 12.3775 15.5304C12.1162 15.844 11.8024 16.0005 11.4362 16H2.10287ZM2.10287 14.4H11.4362V6.4H2.10287V14.4Z" fill="white"/>
</svg>
