<svg height="256" viewBox="0 0 256 256" width="256" xmlns="http://www.w3.org/2000/svg"><path d="m117.925598.06578404c.598168-.06296238 5.792781-.09444357 11.491115-.03148119 7.461354.06296238 11.491115.22036833 14.261575.5981426 25.62676 3.43144964 47.790445 13.12765595 67.278116 29.43491205 3.651971 3.0221941 11.963353 11.3332281 14.985673 14.9850461 16.370903 19.5498186 25.941585 41.4922075 29.467626 67.4641884.787063 5.761058.787063 25.216433 0 30.977491-3.526041 25.971981-13.096723 47.91437-29.467626 67.464188-3.02232 3.651818-11.333702 11.962852-14.985673 14.985046-19.550636 16.370219-41.493943 25.940501-67.467011 29.466394-5.761299.787029-25.217487.787029-30.978786 0-25.9730678-3.525893-47.9163747-13.096175-67.4670111-29.466394-3.6519707-3.022194-11.9633524-11.333228-14.985673-14.985046-16.3709033-19.549818-25.9415852-41.492207-29.46762591-67.464188-.78706265-5.761058-.78706265-25.216433 0-30.977491 3.52604071-25.9719809 13.09672261-47.9143698 29.46762591-67.4641884 3.0223206-3.651818 11.3337023-11.962852 14.985673-14.9850461 19.771014-16.5591056 44.0125438-26.97937928 68.6318641-29.56083681 1.731537-.15740594 3.65197-.37777427 4.250138-.44073665zm7.083564 92.52321546c-6.485396-.9759169-15.048638-.8499921-21.093279.2833307-18.9839516 3.5888556-37.4956653 13.8202418-46.4681796 25.6256878-2.0148804 2.64442-4.2186559 7.177711-5.0057185 10.294349-.7240977 2.833307-.8815102 7.870298-.3148251 10.388793 1.0389227 4.659216 4.5334809 8.594364 10.2318146 11.553596 4.9427534 2.549977 10.8614646 4.785141 14.1671278 5.383284 6.0761237 1.101841 14.8282605 1.448134 20.4636291.849992 8.1539687-.849992 22.2896147-4.659216 29.3416957-7.901779 1.479678-.661105 3.085286-1.227766 3.620488-1.227766 3.085286 0 5.509439 3.337006 4.155691 5.666614-.75558 1.227766-5.698333 3.71478-11.396667 5.698095-3.116768 1.070361-3.840866 1.416654-3.683453 1.825909.75558 1.888871 2.109328 10.451755 2.801943 17.503541 1.227818 12.277664 1.416713 34.40894.472237 51.943963-.188895 3.620337-.37779 8.248071-.37779 10.231386l-.062965 3.620337 7.555802-.031481c10.389227-.031481 17.189448-.849992 27.704605-3.43145 8.594725-2.109239 15.111603-4.375885 21.880342-7.649929 4.879789-2.361089 4.470516-1.60554 4.124209-7.14623-.188896-2.612938-.409273-6.862899-.503721-9.444357-.346307-8.909176-1.951915-30.662678-3.179733-42.657011-2.707495-26.759011-4.848306-36.738548-10.357744-48.008814-3.777901-7.744372-7.807662-13.222099-14.356023-19.486856-4.407551-4.218479-6.296501-5.635133-10.263297-7.6814102-6.139089-3.1481189-12.341143-5.1314339-19.456189-6.2017943zm-45.4292567 130.2376805c-1.2278177-.125925-1.1963352-.377775-.5352026 6.10735.3777901 3.588856.6296501 4.785141 1.0074402 5.068472 1.2907828.975917 1.3852303.629624 1.1648527-4.092555-.12593-2.455532-.314825-5.03699-.4092725-5.729576-.1888951-1.133323-.3148251-1.259248-1.2278178-1.353691zm-14.6078829-20.210924c-.6926152 0-.7240977.629624-.12593 6.138832.25186 2.235165.5352026 5.572171.6611326 7.39808s.4092726 4.78514.6296501 6.611049c.2518601 1.794428.3777901 3.368488.3148251 3.494412-.1574126.188888.5666851.912955 1.3852303 1.385173.5352026.314812.440755-1.32221-.7555802-13.379506-.4092726-4.407366-.7870627-8.657327-.7870627-9.475838 0-.787029-.1574125-1.574059-.37779-1.794428-.2203776-.220368-.6296502-.377774-.9444752-.377774zm127.8819406-17.881315c-.283343-.031482-.598168.031481-.724098.157406-.25186.220368.062965 40.107035.283343 40.358884.094447.094444.37779-.125924.692615-.472218.50372-.566661.535203-1.983314.37779-20.273885-.12593-17.440579-.220377-19.675744-.62965-19.770187zm-103.2200463 5.604046-1.0814971-.000395.2203775 2.581458c.8500277 10.766567 1.5426429 17.755391 1.7630204 17.975759.12593.157406.5666851.188887.9444752.062962.6926151-.220368.6926151-.314812.5037201-3.274043-.3148251-4.407367-1.1018877-13.75728-1.3222653-15.709114-.1574125-1.574059-.2203775-1.637022-1.1333702-1.637022zm-48.7145291-19.865025c-.3148251-.53518-1.0704052-.283331-1.0704052.377774 0 .377774.4722375 4.375885 1.0704052 8.909177 1.0389227 7.996222 2.3926704 21.060915 2.3926704 23.04423 0 .724068.2203776 1.133323.8185452 1.542579l.7870627.503699-.1574126-1.353692c-.0944475-.755548-.5352026-4.753659-.9759577-8.909176-1.4796778-13.75728-2.676013-23.83126-2.864908-24.114591zm181.6855434.031481c-.12593 0-.75558.53518-1.38523 1.164804l-1.164853 1.196285-.062965 13.505431c-.094447 14.733196-.188895 14.229497 1.605608 11.585077l.787063-1.164804.220377-13.159137c.094448-7.209192.094448-13.127656 0-13.127656zm-122.498432-6.075869c-.1574121-.472218-1.0704048-.755549-1.4167124-.377775-.0944475.062963.0944476 2.927751.3777901 6.359201.3148251 3.431449.7870627 9.28695 1.0389223 13.001731.692616 8.972139.755581 9.444357 1.353748 9.444357.535203 0 .50372-1.605541-.37779-14.323942-.25186-3.46293-.535202-7.933259-.62965-9.916574-.12593-1.983315-.283343-3.872187-.346308-4.186998zm-73.0079317-26.759011c-.2203775-1.762947-.5037201-2.077759-1.3537478-1.511097-.4092726.251849-.4407551.031481 4.4705159 33.968203.7555802 5.257358 1.4796778 9.633244 1.5741253 9.727687.7555802.78703.6296502-1.07036-1.0704052-14.072091-1.1333702-8.405478-3.3371456-25.531245-3.6204882-28.112702zm207.3123037-27.294192c-.211735 0-.307223 3.312896-.314387 9.938688l-.000438.827879c-.031482 5.949945-.094447 12.781363-.157412 15.205415-.062965 2.424051-.220378 12.844325-.283343 23.138674-.188895 20.588698-.283342 19.644262 1.668573 14.953565 1.196335-2.864788 1.227818-3.840705 1.479678-37.05336l.220377-26.066425-1.13337-.472218c-.62965-.251849-1.290783-.472218-1.479678-.472218zm-160.4663343 53.203195c-.8500277 0-.8500277-.062947-.4092726 5.572186.4162687 5.232873.4113131 5.439347 1.5233819 5.446138l.274847.000505c1.2217564.014137 1.1528418.364122.6888891-5.667011-.2833426-3.399969-.5037201-4.659216-.8500277-4.974028-.2833425-.188887-.8185451-.37779-1.2278177-.37779zm-26.5712353-14.638738.188895 1.57406c.0879339.791372.3941864 3.656684.7154954 6.5634l.0715673.645792c.314825 3.085157.7240976 5.761058.8815101 5.918464.5037201.503699 1.6370904-.314812 1.6370904-1.196285 0-1.03888-.9129927-9.570282-1.1018878-10.357312-.0944475-.346293-.6611326-1.196285-1.2907827-1.888871zm-18.0394762-82.8899711c-.188895-.1888872-2.0463629 2.7703446-2.2667404 3.6203368-.0944475.4092554.25186 4.2184793.8185452 8.4999211.5352026 4.3129229 1.3852302 10.986935 1.8889503 14.8906025s1.4167128 10.9869347 2.0463629 15.7405947c.5981677 4.75366 1.4481953 11.333228 1.8889504 14.638753 2.1093279 16.4017 3.0538031 23.705336 3.6204882 28.018259.3463076 2.581457.6296502 4.974027.6296502 5.257358 0 .661105.314825.724068 1.0704052.157406.5037201-.377774.5037201-.629624.062965-4.312923-.25186-2.172202-.6926151-5.981426-.9444752-8.499921-.2833425-2.518495-1.7630203-15.960963-3.3371457-29.90713-1.5741253-13.946167-3.4001106-30.4423099-4.0927258-36.6441042-.6926151-6.2332755-1.3222652-11.3647094-1.3852303-11.4591529zm176.0501748-25.9719812.188896 4.5332912c.094447 2.487014.25186 23.0127494.37779 45.6162434.157412 37.3052097.220377 41.1144337.692615 41.4607267.283342.220368.75558.409255 1.101887.409255.566686 0 .566686-1.133323.472238-44.7977323-.094447-38.0292767-.157412-44.9236572-.535203-45.3643938-.25186-.2833308-.850027-.818511-1.38523-1.1962852zm-159.2070339 75.8381853c-.0944475-.062963-.6611326.188887-1.1963352.566661-1.1963353.755549-1.1963353.975917-.5981676 6.012907l.37779 3.148119 1.0074402-2.140721c.9129927-2.014796.9759577-2.266645.7870627-4.816622-.0944475-1.448134-.2833426-2.707382-.3777901-2.770344zm-26.1934452-31.6700767c-.0944475 0-.5037201.9444357-.8815102 2.1092397l-.7240976 2.1407209 2.2352579 15.4257831c1.2593003 8.46844 2.424153 16.559105 2.613048 17.944278.1888951 1.385172.4407551 2.644419.5666851 2.770344.1259301.125925.5037201 0 .8815102-.314812l.6611326-.566661-.5981676-4.407367c-.3463075-2.424051-1.1018877-8.248071-1.7000553-12.907287-.5981676-4.690697-1.4796778-11.5850779-1.9519154-15.3628206-.5037201-3.7462615-.9759577-6.8314181-1.1018877-6.8314181zm200.5750481 8.814733c-.188896 0-.314826 5.6036517-.314826 15.5517077l.000217 1.333722c.004346 12.659893.077279 14.254656.503504 14.406873.692615.251849 2.329705.220368 2.361188-.062963.157412-.818511.346307-20.462773.283342-29.0571376 0-1.0703604-.12593-1.1962852-1.2593-1.668503-.692615-.2833307-1.416713-.5036991-1.574125-.5036991zm-28.113879-6.6110497h-1.00744l.094448 16.2757744c.122152 17.344877.096195 17.420913 1.847254 17.409865l1.049136-.000767-.000022-16.805513c-.001391-14.0253427-.067734-15.9397144-.503698-16.3756604-.25186-.2833307-.944475-.503699-1.479678-.503699zm-101.5310824 24.2405154c2.8963906-1.762946 6.8631863.566662 6.8631863 4.029593 0 3.588855-3.8723482 5.949944-6.8631863 4.155517-3.0223206-1.857391-3.0223206-6.327719 0-8.18511zm-21.3451393-3.022194c3.8408658-1.668503 7.4298715 2.487014 5.226096 6.07587-1.1648527 1.951833-3.4315931 2.487014-5.6668511 1.353691-3.0852856-1.57406-2.8334256-6.012907.4407551-7.429561zm-16.4653508-45.584762c-.2203775-.5666614-.3463076-.5351802-1.4481953.5036991l-1.2278177 1.1333228.8815101 9.0665825c.4722376 5.0055091 1.4167128 14.4183847 2.0778455 20.9035097.6611326 6.4851249 1.2907827 12.9072879 1.4167127 14.2924599l.2203776 2.487014 1.1963352-1.227766 1.2278178-1.227767-1.0704052-11.6480398c-.5981677-6.4221626-1.5111603-16.622068-2.0778455-22.6664563-.5352026-6.0758696-1.0704052-11.301747-1.1963352-11.6165589zm124.3244175-14.3554223v53.5495033l1.13337.472218c.62965.251849 1.196335.409255 1.2593.346293.157413-.125925.12593-42.7829366-.031482-49.7402795-.031483-2.0462773-.188895-3.8407051-.346308-3.9666298-.157412-.157406-.661132-.3462931-1.13337-.4722179zm-57.927812-36.5181796-.850027.0314812c-.50372.0314811-1.290783.1259247-1.763021.1888871l-.88151.1259247.188895 6.9888241c.188895 6.3592002 2.046363 49.8347227 2.613048 61.0420261.12593 2.5499763.346308 4.7221784.440755 4.8481031.12593.0944436.850028.2833308 1.637091.3462931l1.416712.157406-.157412-2.2981268c-.157413-2.2981269-1.196335-28.0812209-1.542643-37.903352-.094448-2.7703447-.314825-8.0906657-.50372-11.805446-.346308-7.5869666-.598168-15.5831887-.598168-19.2664879zm-79.7451882 40.736659c-.314825-.3462931-2.738978 2.833307-2.738978 3.5888555 0 1.2592476 3.1482506 29.1201002 3.3056631 29.2775061.2518601.2518495 2.6760131-.9444357 2.6760131-1.3222099 0-.1888872-.4407551-4.5962537-.9759577-9.7906499-.5037201-5.1943963-1.1963353-12.1832203-1.5426428-15.5202264-.3148251-3.3684872-.6296501-6.1703131-.7240977-6.2332754zm37.05491-28.4904764c-.2203776-.4092554-.7870627-.3148119-1.7945029.2203683-.8185452.4407367-.8500277.5666614-.6926151 1.9518338.0944475.8185109.7240976 8.3425152 1.4167127 16.7479927 1.1963353 14.29246 2.8963906 34.0626469 3.3371457 38.1552015.0944475 1.007398.2833426 1.825909.3777901 1.825909.12593 0 .6926151-.2833308 1.2593002-.6296238 1.0074402-.6296238 1.0389227-.6925862.8815102-2.2981269-.0944475-.8814733-.6926151-7.9332597-1.2907827-15.6461511-1.8259854-22.6979375-3.3056632-40.0440728-3.4945582-40.3274035zm85.5064872 37.4940965h-.724098l.188895 6.988824c.12593 3.8721863.220378 8.2480716.220378 9.7591687v2.7073823l.975958.3462931c1.700055.5981426 2.046362.1259248 1.983397-2.7073823 0-1.3536911-.062965-5.5092081-.094447-9.2239885l-.031483-6.7999369-.912992-.5351802c-.50372-.2833307-1.227818-.5351802-1.605608-.5351802zm-70.3004367-12.2461826c-.7555802.0629623-2.3926705.6296237-2.550083.8499921-.1574125.2518495.9444752 15.7405946 1.2593002 17.5979848.1259301.9444357.2518601 1.0388793 1.1963353 1.0388793 1.7945028 0 1.8574678-.3462931 1.4796778-5.8869825-.1888951-2.7388634-.4092726-6.2647566-.5037201-7.8073349-.0944475-1.5740595-.2518601-3.494412-.3463076-4.3444041-.0944475-.818511-.3463076-1.4796159-.5352026-1.4481347zm39.7624057-9.5702816v2.329608c0 2.2666456.944475 25.5942069 1.038922 25.6571693.031483.0314812.724098.1259248 1.574126.2203683l1.479678.2203684-.031483-4.6592161c-.031482-7.7443725-.472238-23.0127494-.661133-23.2016365-.094447-.0944436-.88151-.2518495-1.794502-.3777743zm-26.445821-8.197738c-.005932-1.1519738-.08008-1.1496567-1.006925-1.120694-.566685 0-1.448195.1574059-1.951915.346293-.850028.3148119-.88151.3777743-.692615 1.9518338.0892.8325025.374972 4.5572908.618621 8.469282l.042511.6917441c.25186 4.155517.62965 9.6017627.787063 12.1202579.188895 2.5184951.346308 5.2573586.409273 6.1388319.062965 1.5740595.062965 1.5740595 1.101887 1.5425783 2.109328-.1259248 2.046363.0629623 1.825986-5.4147646-.12593-2.7073823-.409273-8.972139-.661133-13.9146857s-.472238-9.6332439-.472238-10.483236zm42.596346-18.403867c-1.322265-.2203683-1.668572-.1888871-1.794502.157406-.188895.4722178.031482 19.3924126.283342 24.9645831.062965 1.825909.220378 7.4295607.346308 12.4980322l.220377 9.1610261 1.448196.1259247c.787062.0944436 1.574125.0944436 1.700055 0 .157412-.0629624.188895-1.0703604.094447-2.2351644-.094447-1.1333228-.25186-11.5535965-.37779-23.1701554-.094447-11.5850776-.188895-21.0923968-.220377-21.123878-.031483-.0314812-.787063-.1888871-1.700056-.3777743zm44.736642 23.0442306c-1.290783-.5351802-1.290783-.5351802-1.416713-.0629624-.062965.2203684-.094447 5.0999527-.031482 10.8610103l.094447 10.4517549 1.322265.6296238 1.322266.661105.094447-6.8628993c.062965-3.7462615 0-8.7202895-.094447-11.0184163l-.220378-4.2184793zm-29.184283-5.7925388c-2.153481-.7279066-2.115382-1.309714-2.109712 7.7977013l.000523 1.4169677c.004058 4.9281581.096407 9.2102217.188756 9.579601.157412.5981426 2.046363 1.668503 2.959355 1.668503.346308 0 .440755-15.0480085.12593-18.1961274-.188895-1.7944278-.283342-1.9518337-1.164852-2.2666456z" fill="#222"/></svg>