<svg xmlns="http://www.w3.org/2000/svg" x="0px" y="0px" width="34" height="33" viewBox="0,0,256,256">
<g fill="#d4fbf5" fill-rule="nonzero" stroke="none" stroke-width="1" stroke-linecap="butt" stroke-linejoin="miter" stroke-miterlimit="10" stroke-dasharray="" stroke-dashoffset="0" font-family="none" font-weight="none" font-size="none" text-anchor="none" style="mix-blend-mode: normal"><g transform="scale(16,16)"><path d="M7.5,1c-3.58393,0 -6.5,2.91607 -6.5,6.5c0,3.58393 2.91607,6.5 6.5,6.5c3.58393,0 6.5,-2.91607 6.5,-6.5c0,-3.58393 -2.91607,-6.5 -6.5,-6.5zM7.5,2c3.04349,0 5.5,2.45651 5.5,5.5c0,2.76633 -2.03243,5.04102 -4.6875,5.43359v-3.84375h1.55273l0.24414,-1.57617h-1.79687v-0.86328c0,-0.655 0.21317,-1.23633 0.82617,-1.23633h0.98438v-1.37695c-0.173,-0.023 -0.53847,-0.07422 -1.23047,-0.07422c-1.444,0 -2.29102,0.763 -2.29102,2.5v1.04883h-1.48437v1.57813h1.48633v3.83008c-2.61373,-0.4278 -4.60352,-2.68286 -4.60352,-5.41992c0,-3.04349 2.45651,-5.5 5.5,-5.5z"></path></g></g>
</svg>
