<svg xmlns="http://www.w3.org/2000/svg" x="0px" y="0px" width="34" height="33" viewBox="0,0,256,256">
<g fill="#d4fbf6" fill-rule="nonzero" stroke="none" stroke-width="1" stroke-linecap="butt" stroke-linejoin="miter" stroke-miterlimit="10" stroke-dasharray="" stroke-dashoffset="0" font-family="none" font-weight="none" font-size="none" text-anchor="none" style="mix-blend-mode: normal"><g transform="scale(5.33333,5.33333)"><path d="M24,4c-11.02793,0 -20,8.97207 -20,20c0,11.02793 8.97207,20 20,20c11.02793,0 20,-8.97207 20,-20c0,-11.02793 -8.97207,-20 -20,-20zM24,7c9.40662,0 17,7.59339 17,17c0,7.66536 -5.04306,14.12252 -12,16.25195v-5.11523c0,-1.91008 -1.10068,-3.5481 -2.69141,-4.36328c3.13805,-0.60035 5.72121,-2.3751 6.93703,-4.76606c1.21582,-2.39096 0.9149,-5.10432 -0.80812,-7.28668c0.44354,-1.36529 0.93902,-3.76003 -0.23828,-5.64453c-2.26987,0 -3.73455,1.55591 -4.43359,2.52344c-1.19501,-0.39258 -2.47379,-0.5962 -3.76562,-0.59961c-1.29267,0.00115 -2.5728,0.20278 -3.76953,0.59375c-0.70074,-0.96798 -2.16424,-2.51758 -4.42969,-2.51758c-1.35107,2.16264 -0.51586,4.48839 -0.06836,5.4375c-1.84039,2.17401 -2.23014,4.93209 -1.04286,7.37992c1.18727,2.44783 3.80041,4.27375 6.99208,4.88571c-1.30614,0.67319 -2.28436,1.89475 -2.58398,3.37695h-1.31445c-1.297,0 -1.80095,-0.52702 -2.50195,-1.41602c-0.692,-0.889 -1.43608,-1.48638 -2.33008,-1.73437c-0.482,-0.051 -0.80672,0.31563 -0.38672,0.64063c1.419,0.966 1.51694,2.54703 2.08594,3.58203c0.518,0.932 1.5793,1.77148 2.7793,1.77148h1.57031v3.25195c-6.95694,-2.12943 -12,-8.58659 -12,-16.25195c0,-9.40661 7.59339,-17 17,-17z"></path></g></g>
</svg>