<svg width="28" height="27" viewBox="0 0 1024 1024" xmlns="http://www.w3.org/2000/svg">
  <path d="M8 0C3.58 0 0 3.58 0 8v1008c0 4.42 3.58 8 8 8h1008c4.42 0 8-3.58 8-8V8c0-4.42-3.58-8-8-8H8zm500.3 69.5c230.3 0 417.5 188 417.5 420 0 185.8-119.5 344-285.2 399.7-20.8 3.8-28.3-9-28.3-20 0-9.8-.4-42-1-76.3 116.7 25.5 141.3-51.5 141.3-51.5 18.9-48.2 46.3-61 46.3-61 38.6-26.4-3-25.8-3-25.8-42.6 3-65 44-65 44-37.8 65.5-99 46.6-123 35.6-3.8-27.8-14.8-46.6-27-57.3 93-10.7 190.8-46.7 190.8-208.3 0-46.1-16.4-83.8-43.4-113.3 4.4-10.7 18.8-53.7-4.2-112-4.5-1.4-15.3-5.6-58 21.6-22.5-6.5-46.6-9.7-70.6-9.8-24 .1-48.2 3.3-70.6 9.8-42.6-27.2-53.4-23-58-21.6-23 58.3-8.6 101.3-4.2 112-27 29.5-43.4 67.3-43.4 113.3 0 162 97.8 197.6 190.8 208.3-14.5 12.5-27.6 37-27.6 74.6 0 53.9-.5 97.3-.5 110.5 0 11.1-7.5 23.9-28.3 20C168.2 833.5 48.5 675.3 48.5 489.5c0-232 187.2-420 417.5-420z" fill="white"/>
</svg>
