<svg width="28" height="27" viewBox="0 0 28 27" fill="none" xmlns="http://www.w3.org/2000/svg">
<path d="M8.12 0.981445H19.88C24.36 0.981445 28 4.29647 28 8.37649V19.0866C28 21.0478 27.1445 22.9288 25.6217 24.3156C24.0989 25.7025 22.0336 26.4816 19.88 26.4816H8.12C3.64 26.4816 0 23.1666 0 19.0866V8.37649C0 6.4152 0.855498 4.53424 2.37829 3.1474C3.90109 1.76056 5.96644 0.981445 8.12 0.981445ZM7.84 3.53146C6.50331 3.53146 5.22137 4.01505 4.27618 4.87585C3.331 5.73665 2.8 6.90414 2.8 8.12149V19.3416C2.8 21.8788 5.054 23.9316 7.84 23.9316H20.16C21.4967 23.9316 22.7786 23.448 23.7238 22.5872C24.669 21.7264 25.2 20.5589 25.2 19.3416V8.12149C25.2 5.58422 22.946 3.53146 20.16 3.53146H7.84ZM21.35 5.44397C21.8141 5.44397 22.2592 5.61189 22.5874 5.91077C22.9156 6.20966 23.1 6.61504 23.1 7.03773C23.1 7.46042 22.9156 7.8658 22.5874 8.16469C22.2592 8.46358 21.8141 8.63149 21.35 8.63149C20.8859 8.63149 20.4408 8.46358 20.1126 8.16469C19.7844 7.8658 19.6 7.46042 19.6 7.03773C19.6 6.61504 19.7844 6.20966 20.1126 5.91077C20.4408 5.61189 20.8859 5.44397 21.35 5.44397ZM14 7.35649C15.8565 7.35649 17.637 8.02814 18.9497 9.22369C20.2625 10.4192 21 12.0408 21 13.7315C21 15.4223 20.2625 17.0438 18.9497 18.2394C17.637 19.4349 15.8565 20.1066 14 20.1066C12.1435 20.1066 10.363 19.4349 9.05025 18.2394C7.7375 17.0438 7 15.4223 7 13.7315C7 12.0408 7.7375 10.4192 9.05025 9.22369C10.363 8.02814 12.1435 7.35649 14 7.35649ZM14 9.9065C12.8861 9.9065 11.8178 10.3095 11.0302 11.0268C10.2425 11.7442 9.8 12.7171 9.8 13.7315C9.8 14.746 10.2425 15.7189 11.0302 16.4362C11.8178 17.1536 12.8861 17.5565 14 17.5565C15.1139 17.5565 16.1822 17.1536 16.9698 16.4362C17.7575 15.7189 18.2 14.746 18.2 13.7315C18.2 12.7171 17.7575 11.7442 16.9698 11.0268C16.1822 10.3095 15.1139 9.9065 14 9.9065Z" fill="white"/>
</svg>
