<svg xmlns="http://www.w3.org/2000/svg" x="0px" y="0px" width="34" height="33" viewBox="0,0,256,256">
<g fill="#d4fbf6" fill-rule="nonzero" stroke="none" stroke-width="1" stroke-linecap="butt" stroke-linejoin="miter" stroke-miterlimit="10" stroke-dasharray="" stroke-dashoffset="0" font-family="none" font-weight="none" font-size="none" text-anchor="none" style="mix-blend-mode: normal"><g transform="scale(10.66667,10.66667)"><path d="M8,3c-2.74952,0 -5,2.25048 -5,5v8c0,2.74952 2.25048,5 5,5h8c2.74952,0 5,-2.25048 5,-5v-8c0,-2.74952 -2.25048,-5 -5,-5zM8,5h8c1.66848,0 3,1.33152 3,3v8c0,1.66848 -1.33152,3 -3,3h-8c-1.66848,0 -3,-1.33152 -3,-3v-8c0,-1.66848 1.33152,-3 3,-3zM17,6c-0.55228,0 -1,0.44772 -1,1c0,0.55228 0.44772,1 1,1c0.55228,0 1,-0.44772 1,-1c0,-0.55228 -0.44772,-1 -1,-1zM12,7c-1.58333,0 -2.89811,0.62976 -3.74805,1.58594c-0.84994,0.95618 -1.25195,2.19184 -1.25195,3.41406c0,1.22222 0.40201,2.45788 1.25195,3.41406c0.84994,0.95618 2.16471,1.58594 3.74805,1.58594c1.58333,0 2.89811,-0.62976 3.74805,-1.58594c0.84994,-0.95618 1.25195,-2.19184 1.25195,-3.41406c0,-1.22222 -0.40201,-2.45788 -1.25195,-3.41406c-0.84994,-0.95618 -2.16471,-1.58594 -3.74805,-1.58594zM12,9c1.08333,0 1.76856,0.37024 2.25195,0.91406c0.48339,0.54382 0.74805,1.30816 0.74805,2.08594c0,0.77778 -0.26465,1.54212 -0.74805,2.08594c-0.48339,0.54382 -1.16862,0.91406 -2.25195,0.91406c-1.08333,0 -1.76856,-0.37024 -2.25195,-0.91406c-0.48339,-0.54382 -0.74805,-1.30816 -0.74805,-2.08594c0,-0.77778 0.26465,-1.54212 0.74805,-2.08594c0.48339,-0.54382 1.16862,-0.91406 2.25195,-0.91406z"></path></g></g>
</svg>
