<svg width="28" height="27" viewBox="0 0 28 27" fill="none" xmlns="http://www.w3.org/2000/svg">
<path d="M14 0.981445C10.287 0.981445 6.72601 2.32475 4.10051 4.71586C1.475 7.10696 0 10.35 0 13.7315C0 17.1131 1.475 20.3561 4.10051 22.7472C6.72601 25.1383 10.287 26.4816 14 26.4816C17.713 26.4816 21.274 25.1383 23.8995 22.7472C26.525 20.3561 28 17.1131 28 13.7315C28 10.35 26.525 7.10696 23.8995 4.71586C21.274 2.32475 17.713 0.981445 14 0.981445ZM20.4207 19.3702C20.361 19.4594 20.2826 19.537 20.1898 19.5986C20.0971 19.6601 19.992 19.7043 19.8805 19.7288C19.7689 19.7532 19.6532 19.7573 19.5399 19.7409C19.4266 19.7245 19.318 19.6879 19.2202 19.6332C15.932 17.8052 11.795 17.3908 6.92125 18.406C6.69545 18.4529 6.45844 18.4163 6.26234 18.304C6.06625 18.1918 5.92714 18.0132 5.87563 17.8076C5.82411 17.6019 5.8644 17.3861 5.98763 17.2075C6.11087 17.0289 6.30695 16.9022 6.53275 16.8553C11.8668 15.746 16.4412 16.2226 20.1303 18.2769C20.3276 18.3871 20.469 18.564 20.5235 18.7689C20.5779 18.9739 20.541 19.1901 20.4207 19.3702ZM22.134 15.899C21.9824 16.1236 21.7391 16.2842 21.4575 16.3455C21.176 16.4067 20.8792 16.3637 20.6325 16.2258C16.87 14.1204 11.1335 13.51 6.6815 14.7404C6.41052 14.799 6.12518 14.7613 5.88369 14.6349C5.6422 14.5085 5.46274 14.303 5.38193 14.0603C5.30112 13.8175 5.32504 13.5558 5.44881 13.3286C5.57258 13.1014 5.78689 12.9257 6.048 12.8374C11.1318 11.4333 17.4528 12.1139 21.7735 14.5316C22.0204 14.6694 22.1971 14.8909 22.2647 15.1473C22.3323 15.4038 22.2853 15.6742 22.134 15.899ZM22.281 12.2844C17.7695 9.84275 10.325 9.61803 6.0165 10.8086C5.68418 10.9003 5.32547 10.868 5.01927 10.7189C4.71307 10.5697 4.48447 10.3159 4.38375 10.0133C4.28303 9.71064 4.31846 9.38395 4.48222 9.10509C4.64599 8.82622 4.92468 8.61803 5.257 8.52631C10.2008 7.16045 18.4223 7.42342 23.618 10.2316C23.9169 10.3931 24.1331 10.6561 24.2191 10.9627C24.3051 11.2694 24.2538 11.5946 24.0765 11.8668C23.8992 12.139 23.6104 12.336 23.2737 12.4143C22.937 12.4926 22.5799 12.4459 22.281 12.2844Z" fill="white"/>
</svg>
