<svg height="125" preserveAspectRatio="xMidYMid" viewBox="0 0 512 125" width="512" xmlns="http://www.w3.org/2000/svg"><path d="m166.662789 96.8652521c-5.42099.136416-10.756322-1.3712041-15.304226-4.3245595-4.2489-2.8019546-7.404126-6.9807478-8.935683-11.8344505l9.315834-3.4225917c1.290789 2.9813984 3.400294 5.5358097 6.083877 7.3669995 2.72383 1.8250812 5.941957 2.7706982 9.220127 2.7092497 3.151217.1645671 6.260943-.7767389 8.791899-2.6612845 2.232824-1.8746682 3.448682-4.6940523 3.279477-7.6045944.012858-1.3371292-.296886-2.6576449-.902972-3.849593-.527329-1.066492-1.216724-2.044837-2.043649-2.9002178-1.046066-.9521535-2.232417-1.7376738-3.517407-2.3289865-1.585006-.7908671-2.899809-1.3929226-3.944408-1.8061665-1.045714-.4105667-2.582384-.9650289-4.610008-1.6633865-2.535831-.886723-4.437073-1.5835189-5.703724-2.0903878-1.716434-.7304871-3.383396-1.5721468-4.990271-2.51962-1.729357-.9175307-3.301647-2.1044766-4.657862-3.5162911-1.173432-1.3785008-2.119928-2.9350209-2.803953-4.6111233-2.691707-6.5531183-.892845-14.093302 4.46734-18.7254797 3.802855-3.3584523 8.967696-5.0381247 15.494525-5.0381247 5.44884 0 9.932131 1.2040366 13.449872 3.6121098 3.414384 2.2700309 5.921324 5.6689127 7.081774 9.6013944l-9.125312 3.0413246c-.91676-2.0595051-2.464902-3.7739895-4.42049-4.8954562-2.364988-1.3119972-5.043427-1.9530746-7.746147-1.8540201-2.650863-.1520632-5.276775.5838986-7.462484 2.0915033-1.811468 1.4039564-2.822941 3.6042342-2.709138 5.8932427.016103 1.7491591.77632 3.4086951 2.090388 4.5632697 1.263367 1.2434483 2.745854 2.2424634 4.372636 2.9466214 1.521797.6338835 3.835166 1.4893362 6.94011 2.5663582 1.899791.6982832 3.309372 1.2211776 4.228741 1.5686832s2.266148.9335727 4.040338 1.7582013c1.422324.629426 2.789489 1.3767568 4.087188 2.2341717 1.162021.8358126 2.272934 1.7404787 3.326773 2.7091381 1.145918.9939493 2.125081 2.1651793 2.900217 3.4691067.737897 1.3525524 1.312022 2.7882014 1.710237 4.2765944.485356 1.7488565.725615 3.5566186.714308 5.3715381 0 6.2112256-2.123517 11.0746678-6.369733 14.5903268-4.245845 3.518113-9.695243 5.2769464-16.348194 5.2765002zm60.929227-1.1404549-22.813671-66.5396985h10.647034l15.113259 46.3878693c.835754 2.4946585 1.533971 5.0333033 2.091503 7.6044828.556584-2.5714124 1.254816-5.110109 2.091503-7.6044828l14.923741-46.3878693h10.551215l-22.718968 66.5396985zm52.754963 0v-66.5392523h41.254819v9.315946h-31.368199v18.2505133h20.245752v9.315946h-20.245752v20.3409011h33.458698v9.3159459zm68.534379.0001116v-66.5393639h9.886732v57.0338998h32.508653v9.5054641zm79.6556-57.0340114v57.0338998h-9.88662v-57.0338998h-18.819737v-9.5053525h47.527209v9.5054641zm39.257125 57.0338998v-66.5392523h41.25493v9.315946h-31.367641v18.2505133h20.245752v9.315946h-20.245752v20.3409011h33.458587v9.3159459z" fill="#4a4a55"/><path d="m97.328731 16.5299981c-11.6008715-16.60385883-34.5125926-21.52530545-51.0788602-10.97040872l-29.0944279 18.54321222c-7.94731687 4.9997426-13.42133448 13.1155111-15.07968274 22.3571102-1.38780805 7.6987943-.16795653 15.6405474 3.46642963 22.5679338-2.49038311 3.7778199-4.18891772 8.0213673-4.99294815 12.4741717-1.67442584 9.419022.51578475 19.1154647 6.07617952 26.9003017 11.60332554 16.60542 34.51526974 21.524748 51.07897164 10.970409l29.0943164-18.543213c7.9478096-4.9992336 13.4219908-13.1152446 15.0796828-22.3571099 1.387436-7.6987539.168386-15.6403383-3.4643103-22.5684915 2.4896953-3.7777535 4.1875133-8.0211216 4.9908283-12.473614 1.67552-9.4190472-.514786-19.1159119-6.076179-26.9003015" fill="#ff3e00"/><path d="m43.4074342 109.964532c-9.37789 2.43815-19.2810026-1.232758-24.8038902-9.19436-3.3446307-4.6812449-4.6621319-10.5126134-3.6549438-16.1770802.1688115-.9206016.4011235-1.8284187.6952715-2.7169464l.5479181-1.6707486 1.4904889 1.0948322c3.4424545 2.5293541 7.2914514 4.4524568 11.3811242 5.6864349l1.081335.3280592-.0994997 1.0792157c-.1321773 1.5353166.2835467 3.0678443 1.1734727 4.3258981 1.6621067 2.3983206 4.6439104 3.5050511 7.4682841 2.771939.6322676-.1690244 1.2349156-.4338961 1.7869804-.7854013l29.0945394-18.5410928c1.439453-.9064165 2.4315041-2.3762568 2.7336785-4.0502658.3015922-1.7072811-.0953431-3.4641496-1.1016366-4.8759356-1.663084-2.3987726-4.6455728-3.5059676-7.4710728-2.7735006-.6314778.1690161-1.2333641.4336956-1.7847494.7848436l-11.1025918 7.0775355c-1.8256366 1.1607732-3.8179622 2.0356978-5.9079669 2.5944679-9.3781549 2.4384177-19.281657-1.2325629-24.804671-9.1944714-3.3446009-4.6812163-4.6621008-10.5125383-3.6549438-16.1769691.9971355-5.5572214 4.2892816-10.4372509 9.0687582-13.4428444l29.0926431-18.5426545c1.8264355-1.1627111 3.8202259-2.0387374 5.9119826-2.5975913 9.3779599-2.4382522 19.2811931 1.2326668 24.8041133 9.1943599 3.3445837 4.6812664 4.6620805 10.512615 3.6549438 16.1770807-.1695395.9204417-.4018388 1.8282091-.6952715 2.7169464l-.5479181 1.6707485-1.4898196-1.093159c-3.4421859-2.5308441-7.29156-4.4548332-11.381905-5.6888889l-1.0812235-.3281708.0994998-1.0792157c.1311088-1.5351856-.2845185-3.0673173-1.1734728-4.3257865-1.6621066-2.3983206-4.6439104-3.5050511-7.4682841-2.771939-.6322675.1690244-1.2349155.4338961-1.7869804.7854013l-29.0950971 18.5418737c-1.4397028.9058436-2.4314061 2.3760684-2.7320053 4.0502658-.3034586 1.7072008.0928098 3.4646993 1.0995172 4.8764932 1.663084 2.3987727 4.6455728 3.5059677 7.4710728 2.7735007.6321536-.1693488 1.2347536-.4341994 1.7869804-.7854013l11.1011416-7.0748584c1.8248464-1.1623038 3.8170829-2.038003 5.9072976-2.5965874 9.3781183-2.4383321 19.2815408 1.2326356 24.8045595 9.1944715 3.3446009 4.6812162 4.6621008 10.5125383 3.6549438 16.176969-.9977626 5.557521-4.2896782 10.4379781-9.0687582 13.4449639l-29.0921969 18.5399773c-1.8264355 1.162711-3.8202259 2.038737-5.9119826 2.597591" fill="#fff"/></svg>