<svg width="28" height="24" viewBox="0 0 28 24" fill="none" xmlns="http://www.w3.org/2000/svg">
<path d="M28 3.48144C26.9694 3.9502 25.8585 4.25824 24.7075 4.40556C25.8853 3.69573 26.7954 2.57072 27.2237 1.21804C26.1128 1.88768 24.8815 2.35644 23.5832 2.6243C22.5258 1.4725 21.0402 0.802856 19.3537 0.802856C16.2084 0.802856 13.6386 3.3743 13.6386 6.54843C13.6386 7.00379 13.6922 7.44576 13.7859 7.86094C9.02103 7.61986 4.7782 5.32967 1.95411 1.8609C1.45889 2.70465 1.17782 3.69573 1.17782 4.74038C1.17782 6.73593 2.18164 8.5038 3.73423 9.50827C2.78394 9.50827 1.90057 9.24041 1.12428 8.83862V8.8788C1.12428 11.6645 3.10516 13.9949 5.72849 14.5172C4.88625 14.7479 4.00204 14.78 3.14532 14.611C3.50884 15.7527 4.2208 16.7517 5.18109 17.4676C6.14139 18.1835 7.30175 18.5802 8.49905 18.6021C6.46949 20.2098 3.95372 21.0789 1.3652 21.0664C0.910134 21.0664 0.455067 21.0396 0 20.986C2.54302 22.62 5.56788 23.5709 8.80688 23.5709C19.3537 23.5709 25.1491 14.8119 25.1491 7.21807C25.1491 6.96361 25.1491 6.72254 25.1358 6.46807C26.26 5.66449 27.2237 4.64663 28 3.48144Z" fill="white"/>
</svg>
